Genre: Drama | Mystery | Sci-Fi
Language:English  http://www.imdb.com/title/tt1182345/
Source:1080p.BluRay


Format : Matroska
File size : 1.26 GiB
Duration : 1h 36mn
Overall bit rate : 1 866 Kbps


Video
Format settings, CABAC : Yes
Format settings, ReFrames : 4 frames
Format settings, GOP : M=1, N=16
Codec ID : V_MPEG4/ISO/AVC
Duration : 1h 36mn
Bit rate : 1 500 Kbps
Width : 1 280 pixels
Height : 544 pixels
Display aspect ratio : 2.35:1
Frame rate mode : Variable
Frame rate : 23.976 fps
Color space : YUV
Chroma subsampling : 4:2:0
Bit depth : 8 bits
Scan type : Progressive
Bits/(Pixel*Frame) : 0.090
Stream size : 1 002 MiB (77%)
Writing library : x264


Audio
ID : 2
Format : AC-3
Format/Info : Audio Coding 3
Mode extension : CM (complete main)
Codec ID : A_AC3
Duration : 1h 36mn
Bit rate mode : Constant
Bit rate : 384 Kbps
Channel(s) : 6 channels
Channel positions : Front: L C R, Side: L R, LFE
Sampling rate : 48.0 KHz
Bit depth : 16 bits
Video delay : -1mn 5s
Stream size : 266 MiB (21%)
Language : English



Plot:
Astronaut Sam Bell has a quintessentially personal encounter toward the end of his three-year stint on the Moon, where he, working alongside his computer, GERTY, sends back to Earth parcels of a resource that has helped diminish our planet's power problems
 
http://shareimage.org/images/xepp2nowafvdcmj1fs2.png 
http://shareimage.org/images/6tvlbnuic8r525nkuurv.png 
http://shareimage.org/images/joskm1yb1voczaqnghe2.png 
http://shareimage.org/images/yegu41bvbetoa93gku.png